<mxfile host="app.diagrams.net" modified="2021-01-01T14:13:54.254Z" agent="5.0 (Macintosh; Intel Mac OS X 10_15_6) AppleWebKit/605.1.15 (KHTML, like Gecko) Version/14.0.2 Safari/605.1.15" etag="xVHCQjDSsAGv0z3c8PUZ" version="14.1.4" type="github">
  <diagram id="guBkwhMn2tdeFb1pzM4S" name="第 1 页">
    <mxGraphModel dx="1183" dy="566" grid="1" gridSize="10" guides="1" tooltips="1" connect="1" arrows="1" fold="1" page="1" pageScale="1" pageWidth="827" pageHeight="1169" math="0" shadow="0">
      <root>
        <mxCell id="0" />
        <mxCell id="1" parent="0" />
        <mxCell id="sbSvv-OO6Hl2_Vsve8SQ-4" value="" style="edgeStyle=orthogonalEdgeStyle;rounded=0;orthogonalLoop=1;jettySize=auto;html=1;" edge="1" parent="1" source="sbSvv-OO6Hl2_Vsve8SQ-1" target="sbSvv-OO6Hl2_Vsve8SQ-3">
          <mxGeometry relative="1" as="geometry" />
        </mxCell>
        <mxCell id="sbSvv-OO6Hl2_Vsve8SQ-1" value="&lt;pre style=&quot;color: rgb(169 , 183 , 198) ; font-family: &amp;#34;jetbrains mono&amp;#34; , monospace ; font-size: 9.8pt&quot;&gt;&lt;span style=&quot;color: rgb(255 , 198 , 109) ; background-color: rgb(255 , 255 , 255)&quot;&gt;doService()&lt;/span&gt;&lt;/pre&gt;" style="rounded=1;whiteSpace=wrap;html=1;" vertex="1" parent="1">
          <mxGeometry x="160" y="50" width="150" height="30" as="geometry" />
        </mxCell>
        <mxCell id="sbSvv-OO6Hl2_Vsve8SQ-2" value="DispatcherServlet方法入口，&lt;br&gt;调用doService方法，执行运行mvc流程" style="text;html=1;strokeColor=none;fillColor=none;align=center;verticalAlign=middle;whiteSpace=wrap;rounded=0;" vertex="1" parent="1">
          <mxGeometry x="100" y="10" width="240" height="30" as="geometry" />
        </mxCell>
        <mxCell id="sbSvv-OO6Hl2_Vsve8SQ-6" value="requestPath不为空在finally中&lt;br&gt;执行清除以解析路径操作" style="edgeStyle=orthogonalEdgeStyle;rounded=0;orthogonalLoop=1;jettySize=auto;html=1;" edge="1" parent="1" source="sbSvv-OO6Hl2_Vsve8SQ-3" target="sbSvv-OO6Hl2_Vsve8SQ-5">
          <mxGeometry relative="1" as="geometry" />
        </mxCell>
        <mxCell id="sbSvv-OO6Hl2_Vsve8SQ-8" value="" style="edgeStyle=orthogonalEdgeStyle;rounded=0;orthogonalLoop=1;jettySize=auto;html=1;" edge="1" parent="1" source="sbSvv-OO6Hl2_Vsve8SQ-3" target="sbSvv-OO6Hl2_Vsve8SQ-7">
          <mxGeometry relative="1" as="geometry" />
        </mxCell>
        <mxCell id="sbSvv-OO6Hl2_Vsve8SQ-9" value="校验是否为文件上传" style="edgeLabel;html=1;align=center;verticalAlign=middle;resizable=0;points=[];" vertex="1" connectable="0" parent="sbSvv-OO6Hl2_Vsve8SQ-8">
          <mxGeometry x="-0.1663" y="-1" relative="1" as="geometry">
            <mxPoint y="1" as="offset" />
          </mxGeometry>
        </mxCell>
        <mxCell id="sbSvv-OO6Hl2_Vsve8SQ-3" value="&lt;pre style=&quot;font-family: &amp;#34;jetbrains mono&amp;#34; , monospace ; font-size: 9.8pt&quot;&gt;&lt;span style=&quot;background-color: rgb(255 , 255 , 255)&quot;&gt;doDispatch&lt;/span&gt;&lt;/pre&gt;" style="whiteSpace=wrap;html=1;rounded=1;" vertex="1" parent="1">
          <mxGeometry x="175" y="145" width="120" height="35" as="geometry" />
        </mxCell>
        <mxCell id="sbSvv-OO6Hl2_Vsve8SQ-5" value="&lt;pre style=&quot;font-family: &amp;#34;jetbrains mono&amp;#34; , monospace ; font-size: 9.8pt&quot;&gt;&lt;span style=&quot;font-style: italic ; background-color: rgb(255 , 255 , 255)&quot;&gt;clearParsedRequestPath&lt;/span&gt;&lt;/pre&gt;" style="whiteSpace=wrap;html=1;rounded=1;" vertex="1" parent="1">
          <mxGeometry x="120" y="250" width="230" height="35" as="geometry" />
        </mxCell>
        <mxCell id="sbSvv-OO6Hl2_Vsve8SQ-11" value="获取handler请求" style="edgeStyle=orthogonalEdgeStyle;rounded=0;orthogonalLoop=1;jettySize=auto;html=1;" edge="1" parent="1" source="sbSvv-OO6Hl2_Vsve8SQ-7" target="sbSvv-OO6Hl2_Vsve8SQ-10">
          <mxGeometry relative="1" as="geometry" />
        </mxCell>
        <mxCell id="sbSvv-OO6Hl2_Vsve8SQ-7" value="&lt;pre style=&quot;color: rgb(169 , 183 , 198) ; font-family: &amp;#34;jetbrains mono&amp;#34; , monospace ; font-size: 9.8pt&quot;&gt;&lt;span style=&quot;background-color: rgb(255 , 255 , 255)&quot;&gt;checkMultipart&lt;/span&gt;&lt;/pre&gt;" style="whiteSpace=wrap;html=1;rounded=1;" vertex="1" parent="1">
          <mxGeometry x="530" y="141.25" width="120" height="42.5" as="geometry" />
        </mxCell>
        <mxCell id="sbSvv-OO6Hl2_Vsve8SQ-13" value="" style="edgeStyle=orthogonalEdgeStyle;rounded=0;orthogonalLoop=1;jettySize=auto;html=1;" edge="1" parent="1" source="sbSvv-OO6Hl2_Vsve8SQ-10" target="sbSvv-OO6Hl2_Vsve8SQ-12">
          <mxGeometry relative="1" as="geometry" />
        </mxCell>
        <mxCell id="sbSvv-OO6Hl2_Vsve8SQ-10" value="&lt;pre style=&quot;color: rgb(169 , 183 , 198) ; font-family: &amp;#34;jetbrains mono&amp;#34; , monospace ; font-size: 9.8pt&quot;&gt;&lt;span style=&quot;background-color: rgb(255 , 255 , 255)&quot;&gt;getHandler&lt;/span&gt;&lt;/pre&gt;" style="whiteSpace=wrap;html=1;rounded=1;" vertex="1" parent="1">
          <mxGeometry x="530" y="215" width="120" height="35" as="geometry" />
        </mxCell>
        <mxCell id="sbSvv-OO6Hl2_Vsve8SQ-15" value="" style="edgeStyle=orthogonalEdgeStyle;rounded=0;orthogonalLoop=1;jettySize=auto;html=1;" edge="1" parent="1" source="sbSvv-OO6Hl2_Vsve8SQ-12" target="sbSvv-OO6Hl2_Vsve8SQ-14">
          <mxGeometry relative="1" as="geometry" />
        </mxCell>
        <mxCell id="sbSvv-OO6Hl2_Vsve8SQ-16" value="否" style="edgeLabel;html=1;align=center;verticalAlign=middle;resizable=0;points=[];" vertex="1" connectable="0" parent="sbSvv-OO6Hl2_Vsve8SQ-15">
          <mxGeometry x="-0.2" y="-2" relative="1" as="geometry">
            <mxPoint y="1" as="offset" />
          </mxGeometry>
        </mxCell>
        <mxCell id="sbSvv-OO6Hl2_Vsve8SQ-18" value="" style="edgeStyle=orthogonalEdgeStyle;rounded=0;orthogonalLoop=1;jettySize=auto;html=1;" edge="1" parent="1" source="sbSvv-OO6Hl2_Vsve8SQ-12" target="sbSvv-OO6Hl2_Vsve8SQ-17">
          <mxGeometry relative="1" as="geometry" />
        </mxCell>
        <mxCell id="sbSvv-OO6Hl2_Vsve8SQ-19" value="是" style="edgeLabel;html=1;align=center;verticalAlign=middle;resizable=0;points=[];" vertex="1" connectable="0" parent="sbSvv-OO6Hl2_Vsve8SQ-18">
          <mxGeometry x="-0.4111" y="2" relative="1" as="geometry">
            <mxPoint as="offset" />
          </mxGeometry>
        </mxCell>
        <mxCell id="sbSvv-OO6Hl2_Vsve8SQ-12" value="是否存在&lt;br&gt;handler" style="rhombus;whiteSpace=wrap;html=1;rounded=1;" vertex="1" parent="1">
          <mxGeometry x="550" y="280" width="80" height="80" as="geometry" />
        </mxCell>
        <mxCell id="sbSvv-OO6Hl2_Vsve8SQ-14" value="&lt;span style=&quot;background-color: rgb(255 , 255 , 255)&quot;&gt;报错，跳转错误页面&lt;br&gt;&lt;/span&gt;&lt;pre style=&quot;color: rgb(169 , 183 , 198) ; font-family: &amp;#34;jetbrains mono&amp;#34; , monospace ; font-size: 9.8pt&quot;&gt;&lt;span style=&quot;background-color: rgb(255 , 255 , 255)&quot;&gt;response.sendError&lt;/span&gt;&lt;/pre&gt;" style="whiteSpace=wrap;html=1;rounded=1;" vertex="1" parent="1">
          <mxGeometry x="690" y="290" width="180" height="60" as="geometry" />
        </mxCell>
        <mxCell id="sbSvv-OO6Hl2_Vsve8SQ-22" value="通过适配器处理handler请求" style="edgeStyle=orthogonalEdgeStyle;rounded=0;orthogonalLoop=1;jettySize=auto;html=1;" edge="1" parent="1" source="sbSvv-OO6Hl2_Vsve8SQ-17" target="sbSvv-OO6Hl2_Vsve8SQ-21">
          <mxGeometry relative="1" as="geometry" />
        </mxCell>
        <mxCell id="sbSvv-OO6Hl2_Vsve8SQ-17" value="&lt;pre style=&quot;color: rgb(169 , 183 , 198) ; font-family: &amp;#34;jetbrains mono&amp;#34; , monospace ; font-size: 9.8pt&quot;&gt;&lt;span style=&quot;background-color: rgb(255 , 255 , 255)&quot;&gt;getHandlerAdapter&lt;/span&gt;&lt;/pre&gt;" style="whiteSpace=wrap;html=1;rounded=1;" vertex="1" parent="1">
          <mxGeometry x="485" y="400" width="210" height="40" as="geometry" />
        </mxCell>
        <mxCell id="sbSvv-OO6Hl2_Vsve8SQ-20" value="获取handler的适配器" style="text;html=1;strokeColor=none;fillColor=none;align=center;verticalAlign=middle;whiteSpace=wrap;rounded=0;" vertex="1" parent="1">
          <mxGeometry x="590" y="380" width="170" height="20" as="geometry" />
        </mxCell>
        <mxCell id="sbSvv-OO6Hl2_Vsve8SQ-24" value="" style="edgeStyle=orthogonalEdgeStyle;rounded=0;orthogonalLoop=1;jettySize=auto;html=1;" edge="1" parent="1" source="sbSvv-OO6Hl2_Vsve8SQ-21" target="sbSvv-OO6Hl2_Vsve8SQ-23">
          <mxGeometry relative="1" as="geometry" />
        </mxCell>
        <mxCell id="sbSvv-OO6Hl2_Vsve8SQ-29" value="处理调度结果" style="edgeStyle=orthogonalEdgeStyle;rounded=0;orthogonalLoop=1;jettySize=auto;html=1;" edge="1" parent="1" source="sbSvv-OO6Hl2_Vsve8SQ-21" target="sbSvv-OO6Hl2_Vsve8SQ-28">
          <mxGeometry relative="1" as="geometry" />
        </mxCell>
        <mxCell id="sbSvv-OO6Hl2_Vsve8SQ-21" value="&lt;pre style=&quot;color: rgb(169 , 183 , 198) ; font-family: &amp;#34;jetbrains mono&amp;#34; , monospace ; font-size: 9.8pt&quot;&gt;&lt;span style=&quot;background-color: rgb(255 , 255 , 255)&quot;&gt;handle&lt;/span&gt;&lt;/pre&gt;" style="whiteSpace=wrap;html=1;rounded=1;" vertex="1" parent="1">
          <mxGeometry x="530" y="510" width="120" height="50" as="geometry" />
        </mxCell>
        <mxCell id="sbSvv-OO6Hl2_Vsve8SQ-27" value="通过反射处理handler的方法请求" style="edgeStyle=orthogonalEdgeStyle;rounded=0;orthogonalLoop=1;jettySize=auto;html=1;" edge="1" parent="1" source="sbSvv-OO6Hl2_Vsve8SQ-23" target="sbSvv-OO6Hl2_Vsve8SQ-26">
          <mxGeometry relative="1" as="geometry" />
        </mxCell>
        <mxCell id="sbSvv-OO6Hl2_Vsve8SQ-23" value="&lt;pre style=&quot;color: rgb(169 , 183 , 198) ; font-family: &amp;#34;jetbrains mono&amp;#34; , monospace ; font-size: 9.8pt&quot;&gt;&lt;span style=&quot;background-color: rgb(255 , 255 , 255)&quot;&gt;handleInternal&lt;/span&gt;&lt;/pre&gt;" style="whiteSpace=wrap;html=1;rounded=1;" vertex="1" parent="1">
          <mxGeometry x="865" y="477.5" width="230" height="35" as="geometry" />
        </mxCell>
        <mxCell id="sbSvv-OO6Hl2_Vsve8SQ-25" style="edgeStyle=orthogonalEdgeStyle;rounded=0;orthogonalLoop=1;jettySize=auto;html=1;exitX=0.5;exitY=1;exitDx=0;exitDy=0;" edge="1" parent="1" source="sbSvv-OO6Hl2_Vsve8SQ-14" target="sbSvv-OO6Hl2_Vsve8SQ-14">
          <mxGeometry relative="1" as="geometry" />
        </mxCell>
        <mxCell id="sbSvv-OO6Hl2_Vsve8SQ-31" value="&lt;span style=&quot;color: rgb(0, 0, 0); font-family: helvetica; font-size: 11px; font-style: normal; font-weight: normal; letter-spacing: normal; text-align: center; text-indent: 0px; text-transform: none; word-spacing: 0px; background-color: rgb(255, 255, 255); text-decoration: none; display: inline; float: none;&quot;&gt;返回ModelAndView&lt;/span&gt;" style="edgeStyle=orthogonalEdgeStyle;rounded=0;orthogonalLoop=1;jettySize=auto;html=1;entryX=1;entryY=0.75;entryDx=0;entryDy=0;" edge="1" parent="1" source="sbSvv-OO6Hl2_Vsve8SQ-26" target="sbSvv-OO6Hl2_Vsve8SQ-21">
          <mxGeometry relative="1" as="geometry" />
        </mxCell>
        <mxCell id="sbSvv-OO6Hl2_Vsve8SQ-26" value="&lt;pre style=&quot;font-style: normal ; font-weight: normal ; letter-spacing: normal ; text-indent: 0px ; text-transform: none ; word-spacing: 0px ; text-decoration: none ; color: rgb(169 , 183 , 198) ; font-family: &amp;#34;jetbrains mono&amp;#34; , monospace ; font-size: 9.8pt&quot;&gt;&lt;span style=&quot;background-color: rgb(255 , 255 , 255)&quot;&gt;invokeHandlerMethod&lt;/span&gt;&lt;/pre&gt;" style="whiteSpace=wrap;html=1;rounded=1;" vertex="1" parent="1">
          <mxGeometry x="860" y="585" width="240" height="35" as="geometry" />
        </mxCell>
        <mxCell id="sbSvv-OO6Hl2_Vsve8SQ-33" value="" style="edgeStyle=orthogonalEdgeStyle;rounded=0;orthogonalLoop=1;jettySize=auto;html=1;" edge="1" parent="1" source="sbSvv-OO6Hl2_Vsve8SQ-28" target="sbSvv-OO6Hl2_Vsve8SQ-32">
          <mxGeometry relative="1" as="geometry" />
        </mxCell>
        <mxCell id="sbSvv-OO6Hl2_Vsve8SQ-28" value="&lt;pre style=&quot;color: rgb(169 , 183 , 198) ; font-family: &amp;#34;jetbrains mono&amp;#34; , monospace ; font-size: 9.8pt&quot;&gt;&lt;span style=&quot;background-color: rgb(255 , 255 , 255)&quot;&gt;processDispatchResult&lt;/span&gt;&lt;/pre&gt;" style="whiteSpace=wrap;html=1;rounded=1;" vertex="1" parent="1">
          <mxGeometry x="485" y="620" width="210" height="37.5" as="geometry" />
        </mxCell>
        <mxCell id="sbSvv-OO6Hl2_Vsve8SQ-35" value="" style="edgeStyle=orthogonalEdgeStyle;rounded=0;orthogonalLoop=1;jettySize=auto;html=1;" edge="1" parent="1" source="sbSvv-OO6Hl2_Vsve8SQ-32" target="sbSvv-OO6Hl2_Vsve8SQ-34">
          <mxGeometry relative="1" as="geometry" />
        </mxCell>
        <mxCell id="sbSvv-OO6Hl2_Vsve8SQ-32" value="&lt;pre style=&quot;color: rgb(169 , 183 , 198) ; font-family: &amp;#34;jetbrains mono&amp;#34; , monospace ; font-size: 9.8pt&quot;&gt;&lt;span style=&quot;background-color: rgb(255 , 255 , 255)&quot;&gt;render&lt;/span&gt;&lt;/pre&gt;" style="whiteSpace=wrap;html=1;rounded=1;" vertex="1" parent="1">
          <mxGeometry x="530" y="680" width="120" height="40" as="geometry" />
        </mxCell>
        <mxCell id="sbSvv-OO6Hl2_Vsve8SQ-34" value="response请求进行数据或页面返回" style="whiteSpace=wrap;html=1;rounded=1;" vertex="1" parent="1">
          <mxGeometry x="530" y="750" width="120" height="60" as="geometry" />
        </mxCell>
      </root>
    </mxGraphModel>
  </diagram>
</mxfile>
